<?xml version="1.0" encoding="UTF-8" standalone="no"?>
<!-- Created by diasvg.py -->
<svg
   xmlns:dc="http://purl.org/dc/elements/1.1/"
   xmlns:cc="http://web.resource.org/cc/"
   xmlns:rdf="http://www.w3.org/1999/02/22-rdf-syntax-ns#"
   xmlns:svg="http://www.w3.org/2000/svg"
   xmlns="http://www.w3.org/2000/svg"
   xmlns:xlink="http://www.w3.org/1999/xlink"
   xmlns:sodipodi="http://sodipodi.sourceforge.net/DTD/sodipodi-0.dtd"
   xmlns:inkscape="http://www.inkscape.org/namespaces/inkscape"
   width="620"
   height="350"
   viewBox="2.831 3.75 11.15 13.564"
   id="svg2"
   sodipodi:version="0.32"
   inkscape:version="0.45"
   sodipodi:docname="scr_overall_schema.svg"
   sodipodi:docbase="/home/stefan/ETH/Masterarbeit/capture_replay/report/illustrations"
   inkscape:output_extension="org.inkscape.output.svg.inkscape"
   version="1.0"
   inkscape:dataloss="true"
   sodipodi:modified="true">
  <metadata
     id="metadata75">
    <rdf:RDF>
      <cc:Work
         rdf:about="">
        <dc:format>image/svg+xml</dc:format>
        <dc:type
           rdf:resource="http://purl.org/dc/dcmitype/StillImage" />
      </cc:Work>
    </rdf:RDF>
  </metadata>
  <defs
     id="defs73">
    <marker
       inkscape:stockid="RazorWire"
       id="RazorWire"
       refX="0"
       refY="0"
       orient="auto">
       style=&quot;overflow:visible&quot;&gt;
      <path
   id="path3938"
   transform="scale(0.8,0.8)"
   style="fill:#808080;fill-opacity:1;fill-rule:evenodd;stroke:#000000;stroke-width:0.1pt"
   d="M 0.022727273,-0.74009011 L 0.022727273,0.69740989 L -7.7585227,3.0099099 L 10.678977,3.0099099 L 3.4914773,0.69740989 L 3.4914773,-0.74009011 L 10.741477,-2.8963401 L -7.7272727,-2.8963401 L 0.022727273,-0.74009011 z " />
</marker>
    <marker
       inkscape:stockid="Legs"
       orient="auto"
       refY="0"
       refX="0"
       id="Legs"
       style="overflow:visible">
      <g
         id="g3961"
         transform="scale(-0.7,-0.7)">
        <g
           id="g3963"
           transform="matrix(0,-1,-1,0,20.70862,21.31391)">
          <path
             id="path3965"
             d="M 21.22125,20.67536 C 14.311099,25.396517 18.766725,27.282204 15.380179,34.118595"
             style="fill:none;fill-opacity:0.75;fill-rule:evenodd;stroke:#000000;stroke-width:1pt;marker-start:none;marker-end:none" />
          <path
             id="path3967"
             d="M 21.39811,20.54812 C 20.037601,28.895644 24.934182,29.31806 25.903151,34.373078"
             style="fill:none;fill-opacity:0.75;fill-rule:evenodd;stroke:#000000;stroke-width:1pt;marker-start:none;marker-end:none" />
        </g>
        <path
           id="path3969"
           d="M -14.09007,-6.7318716 L -15.012238,-2.6884886 L -11.049487,-3.9115586 L -14.09007,-6.7318716 z "
           style="fill:#030300;fill-rule:evenodd;stroke-width:1pt;marker-end:none" />
        <path
           id="path3971"
           d="M -15.215679,4.5567534 L -13.341552,8.2563664 L -11.074678,4.7835114 L -15.215679,4.5567534 z "
           style="fill:#030300;fill-rule:evenodd;stroke-width:1pt;marker-end:none" />
      </g>
    </marker>
    <marker
       inkscape:stockid="Dot_l"
       orient="auto"
       refY="0"
       refX="0"
       id="Dot_l"
       style="overflow:visible">
      <path
         id="path4046"
         d="M -2.5,-1 C -2.5,1.76 -4.74,4 -7.5,4 C -10.26,4 -12.5,1.76 -12.5,-1 C -12.5,-3.76 -10.26,-6 -7.5,-6 C -4.74,-6 -2.5,-3.76 -2.5,-1 z "
         style="fill-rule:evenodd;stroke:#000000;stroke-width:1pt;marker-start:none;marker-end:none"
         transform="matrix(0.8,0,0,0.8,5.92,0.8)" />
    </marker>
    <marker
       inkscape:stockid="Scissors"
       orient="auto"
       refY="0"
       refX="0"
       id="Scissors"
       style="overflow:visible">
      <path
         id="schere"
         style="marker-start:none"
         d="M 9.0898857,-3.6061018 C 8.1198849,-4.7769976 6.3697607,-4.7358294 5.0623558,-4.2327734 L -3.1500488,-1.1548705 C -5.5383421,-2.461584 -7.8983361,-2.0874077 -7.8983361,-2.7236578 C -7.8983361,-3.2209742 -7.4416699,-3.11198 -7.5100293,-4.4068519 C -7.5756648,-5.6501286 -8.8736064,-6.5699315 -10.100428,-6.4884954 C -11.327699,-6.49585 -12.599867,-5.5553341 -12.610769,-4.2584343 C -12.702194,-2.9520479 -11.60356,-1.7387447 -10.304005,-1.6532027 C -8.7816644,-1.4265411 -6.085747,-2.3487593 -4.82106,-0.082342643 C -5.7633447,1.6559151 -7.4350844,1.6607341 -8.9465707,1.5737277 C -10.201445,1.5014928 -11.708664,1.8611256 -12.307219,3.0945882 C -12.885586,4.2766744 -12.318421,5.9591904 -10.99047,6.3210002 C -9.6502788,6.8128279 -7.8098011,6.1912892 -7.4910978,4.650276 C -7.2454393,3.462453 -8.0864637,2.9043186 -7.7636052,2.4731223 C -7.5199917,2.1477623 -5.9728246,2.3362771 -3.2164999,1.0982979 L 5.6763468,4.2330688 C 6.8000164,4.5467672 8.1730685,4.5362646 9.1684433,3.4313614 L -0.05164093,-0.053722219 L 9.0898857,-3.6061018 z M -9.2179159,-5.5066058 C -7.9233569,-4.783806 -8.0290767,-2.8230356 -9.3743431,-2.4433169 C -10.590861,-2.0196559 -12.14537,-3.2022863 -11.757521,-4.5207817 C -11.530373,-5.6026336 -10.104134,-6.0014137 -9.2179159,-5.5066058 z M -9.1616516,2.5107591 C -7.8108215,3.0096239 -8.0402087,5.2951947 -9.4138723,5.6023681 C -10.324932,5.9187072 -11.627422,5.4635705 -11.719569,4.3902287 C -11.897178,3.0851737 -10.363484,1.9060805 -9.1616516,2.5107591 z " />
    </marker>
    <marker
       inkscape:stockid="TriangleInL"
       orient="auto"
       refY="0"
       refX="0"
       id="TriangleInL"
       style="overflow:visible">
      <path
         id="path4019"
         d="M 5.77,0 L -2.88,5 L -2.88,-5 L 5.77,0 z "
         style="fill-rule:evenodd;stroke:#000000;stroke-width:1pt;marker-start:none"
         transform="scale(-0.8,-0.8)" />
    </marker>
    <marker
       inkscape:stockid="TriangleOutL"
       orient="auto"
       refY="0"
       refX="0"
       id="TriangleOutL"
       style="overflow:visible">
      <path
         id="path4010"
         d="M 5.77,0 L -2.88,5 L -2.88,-5 L 5.77,0 z "
         style="fill-rule:evenodd;stroke:#000000;stroke-width:1pt;marker-start:none"
         transform="scale(0.8,0.8)" />
    </marker>
    <linearGradient
       id="linearGradient3730">
      <stop
         style="stop-color:#0000d5;stop-opacity:0.17525773;"
         offset="0"
         id="stop3732" />
      <stop
         style="stop-color:#000000;stop-opacity:0;"
         offset="1"
         id="stop3734" />
    </linearGradient>
    <linearGradient
       inkscape:collect="always"
       xlink:href="#linearGradient3730"
       id="linearGradient2922"
       gradientUnits="userSpaceOnUse"
       gradientTransform="matrix(0.6354661,0,0,0.8275862,2.2706586,-0.7162509)"
       x1="5.9765363"
       y1="9.1720877"
       x2="9.883317"
       y2="9.1720877" />
  </defs>
  <sodipodi:namedview
     inkscape:window-height="961"
     inkscape:window-width="1680"
     inkscape:pageshadow="2"
     inkscape:pageopacity="0.0"
     guidetolerance="10.0"
     gridtolerance="10.0"
     objecttolerance="10.0"
     borderopacity="1.0"
     bordercolor="#666666"
     pagecolor="#ffffff"
     id="base"
     inkscape:zoom="4.6816564"
     inkscape:cx="255.94743"
     inkscape:cy="255.26742"
     inkscape:window-x="0"
     inkscape:window-y="0"
     inkscape:current-layer="svg2"
     height="350px"
     width="620px" />
  <flowRoot
     xml:space="preserve"
     id="flowRoot2711"><flowRegion
       id="flowRegion2713"><rect
         id="rect2715"
         width="1.3550216"
         height="0.51844305"
         x="4.059278"
         y="7.1572294" /></flowRegion><flowPara
       id="flowPara2717">User</flowPara></flowRoot>  <g
     id="g4270"
     transform="matrix(2.5862646,0,0,2.5862646,-14.108836,-8.7894651)">
    <g
       transform="matrix(0.6961334,0,0,0.8265064,1.8004958,1.6146189)"
       id="g4245">
      <path
         style="fill:none;stroke:#000000;stroke-width:0.00131835"
         d="M 5.2685264,8.3573229 C 5.6244686,8.1031414 5.8024398,8.0185611 6.1579415,8.0185611 C 6.5134432,8.0185611 6.6914144,8.1031414 7.0473566,8.3573229 L 7.0473566,9.7123705 C 6.6914144,9.966552 6.5134432,10.051132 6.1579415,10.051132 C 5.8024398,10.051132 5.6244686,9.966552 5.2685264,9.7123705 L 5.2685264,8.3573229"
         id="path14" />
      <path
         style="fill:none;stroke:#000000;stroke-width:0.00131835"
         d="M 5.2685264,8.3573229 C 5.6244686,8.6115045 5.8024398,8.6960848 6.1579415,8.6960848 C 6.5134432,8.6960848 6.6914144,8.6115045 7.0473566,8.3573229"
         id="path16" />
    </g>
    <text
       id="text18"
       font-weight="400"
       font-style="normal"
       font-size="0.80"
       y="9.0907927"
       x="5.9429665"
       style="font-size:0.2340368px;font-style:normal;font-weight:400;text-anchor:start;fill:#000000;font-family:sans">File</text>
    <text
       id="text20"
       font-weight="400"
       font-style="normal"
       font-size="0.80"
       y="9.4432116"
       x="5.6799746"
       style="font-size:0.2340368px;font-style:normal;font-weight:400;text-anchor:start;fill:#000000;font-family:sans">System</text>
  </g>
  <g
     id="g4210"
     transform="matrix(2.5862646,0,0,2.5862646,-12.402323,-9.4598811)">
    <g
       transform="matrix(0.3593443,0,0,0.3716531,9.3124778,4.5782378)"
       id="g2227">
      <path
         style="fill:#ffe9aa;stroke:none;stroke-width:0.001"
         d="M 8.064,4.512 L 8.063,4.474 L 8.059,4.437 L 8.051,4.399 L 8.041,4.362 L 8.026,4.325 L 8.01,4.288 L 7.99,4.253 L 7.967,4.217 L 7.943,4.183 L 7.914,4.149 L 7.884,4.117 L 7.851,4.085 L 7.814,4.055 L 7.776,4.025 L 7.736,3.997 L 7.692,3.97 L 7.647,3.944 L 7.601,3.92 L 7.552,3.898 L 7.502,3.877 L 7.449,3.857 L 7.395,3.84 L 7.341,3.824 L 7.284,3.81 L 7.226,3.798 L 7.169,3.787 L 7.11,3.778 L 7.05,3.772 L 6.99,3.767 L 6.929,3.765 L 6.869,3.763 L 6.869,3.763 L 6.808,3.765 L 6.747,3.767 L 6.688,3.772 L 6.628,3.778 L 6.568,3.787 L 6.511,3.798 L 6.453,3.81 L 6.397,3.824 L 6.342,3.84 L 6.289,3.857 L 6.236,3.877 L 6.186,3.898 L 6.137,3.92 L 6.09,3.944 L 6.045,3.97 L 6.002,3.997 L 5.961,4.025 L 5.923,4.055 L 5.887,4.085 L 5.853,4.117 L 5.823,4.149 L 5.795,4.183 L 5.769,4.217 L 5.748,4.253 L 5.728,4.288 L 5.711,4.325 L 5.697,4.362 L 5.687,4.399 L 5.679,4.437 L 5.674,4.474 L 5.673,4.512 L 5.673,4.512 L 5.674,4.55 L 5.679,4.589 L 5.687,4.626 L 5.697,4.664 L 5.711,4.701 L 5.728,4.737 L 5.748,4.772 L 5.769,4.808 L 5.795,4.842 L 5.823,4.876 L 5.853,4.909 L 5.887,4.94 L 5.923,4.97 L 5.961,5 L 6.002,5.028 L 6.045,5.056 L 6.09,5.081 L 6.137,5.104 L 6.186,5.128 L 6.236,5.148 L 6.289,5.167 L 6.342,5.185 L 6.397,5.201 L 6.453,5.215 L 6.511,5.227 L 6.568,5.238 L 6.628,5.246 L 6.688,5.252 L 6.747,5.258 L 6.808,5.26 L 6.869,5.261 L 6.869,5.261 L 6.929,5.26 L 6.99,5.258 L 7.05,5.252 L 7.11,5.246 L 7.169,5.238 L 7.226,5.227 L 7.284,5.215 L 7.341,5.201 L 7.395,5.185 L 7.449,5.167 L 7.502,5.148 L 7.552,5.128 L 7.601,5.104 L 7.647,5.081 L 7.692,5.056 L 7.736,5.028 L 7.776,5 L 7.814,4.97 L 7.851,4.94 L 7.884,4.909 L 7.914,4.876 L 7.943,4.842 L 7.967,4.808 L 7.99,4.772 L 8.01,4.737 L 8.026,4.701 L 8.041,4.664 L 8.051,4.626 L 8.059,4.589 L 8.063,4.55 L 8.064,4.512"
         id="path22" />
      <path
         style="fill:#ffe9aa;stroke:none;stroke-width:0.001"
         d="M 6.19,4.905 L 6.189,4.868 L 6.185,4.83 L 6.18,4.793 L 6.172,4.755 L 6.161,4.718 L 6.148,4.682 L 6.133,4.646 L 6.116,4.611 L 6.097,4.576 L 6.075,4.542 L 6.052,4.51 L 6.027,4.478 L 5.998,4.448 L 5.969,4.417 L 5.938,4.39 L 5.904,4.363 L 5.871,4.337 L 5.834,4.313 L 5.797,4.291 L 5.758,4.27 L 5.719,4.251 L 5.678,4.233 L 5.635,4.217 L 5.592,4.204 L 5.548,4.192 L 5.503,4.18 L 5.458,4.172 L 5.412,4.166 L 5.367,4.16 L 5.32,4.158 L 5.274,4.157 L 5.274,4.157 L 5.227,4.158 L 5.181,4.16 L 5.135,4.166 L 5.089,4.172 L 5.043,4.18 L 4.999,4.192 L 4.955,4.204 L 4.912,4.217 L 4.87,4.233 L 4.829,4.251 L 4.789,4.27 L 4.75,4.291 L 4.712,4.313 L 4.677,4.337 L 4.643,4.363 L 4.609,4.39 L 4.578,4.417 L 4.549,4.448 L 4.521,4.478 L 4.496,4.51 L 4.472,4.542 L 4.451,4.576 L 4.431,4.611 L 4.414,4.646 L 4.399,4.682 L 4.386,4.718 L 4.375,4.755 L 4.368,4.793 L 4.362,4.83 L 4.358,4.868 L 4.357,4.905 L 4.357,4.905 L 4.358,4.944 L 4.362,4.982 L 4.368,5.019 L 4.375,5.056 L 4.386,5.094 L 4.399,5.129 L 4.414,5.166 L 4.431,5.201 L 4.451,5.236 L 4.472,5.269 L 4.496,5.302 L 4.521,5.334 L 4.549,5.363 L 4.578,5.393 L 4.609,5.422 L 4.643,5.448 L 4.677,5.474 L 4.712,5.497 L 4.75,5.521 L 4.789,5.542 L 4.829,5.561 L 4.87,5.579 L 4.912,5.594 L 4.955,5.608 L 4.999,5.62 L 5.043,5.631 L 5.089,5.64 L 5.135,5.646 L 5.181,5.65 L 5.227,5.653 L 5.274,5.654 L 5.274,5.654 L 5.32,5.653 L 5.367,5.65 L 5.412,5.646 L 5.458,5.64 L 5.503,5.631 L 5.548,5.62 L 5.592,5.608 L 5.635,5.594 L 5.678,5.579 L 5.719,5.561 L 5.758,5.542 L 5.797,5.521 L 5.834,5.497 L 5.871,5.474 L 5.904,5.448 L 5.938,5.422 L 5.969,5.393 L 5.998,5.363 L 6.027,5.334 L 6.052,5.302 L 6.075,5.269 L 6.097,5.236 L 6.116,5.201 L 6.133,5.166 L 6.148,5.129 L 6.161,5.094 L 6.172,5.056 L 6.18,5.019 L 6.185,4.982 L 6.189,4.944 L 6.19,4.905"
         id="path24" />
      <path
         style="fill:#ffe9aa;stroke:none;stroke-width:0.001"
         d="M 5.034,5.669 L 5.034,5.639 L 5.032,5.608 L 5.028,5.577 L 5.023,5.546 L 5.015,5.516 L 5.006,5.487 L 4.996,5.457 L 4.985,5.429 L 4.972,5.401 L 4.957,5.372 L 4.941,5.347 L 4.924,5.32 L 4.905,5.295 L 4.886,5.271 L 4.864,5.248 L 4.842,5.227 L 4.819,5.206 L 4.796,5.186 L 4.77,5.168 L 4.744,5.151 L 4.717,5.135 L 4.689,5.12 L 4.661,5.107 L 4.632,5.096 L 4.602,5.086 L 4.572,5.078 L 4.542,5.07 L 4.51,5.066 L 4.479,5.062 L 4.449,5.06 L 4.418,5.058 L 4.418,5.058 L 4.386,5.06 L 4.354,5.062 L 4.323,5.066 L 4.293,5.07 L 4.262,5.078 L 4.232,5.086 L 4.203,5.096 L 4.174,5.107 L 4.145,5.12 L 4.117,5.135 L 4.09,5.151 L 4.064,5.168 L 4.039,5.186 L 4.014,5.206 L 3.992,5.227 L 3.97,5.248 L 3.949,5.271 L 3.929,5.295 L 3.91,5.32 L 3.893,5.347 L 3.877,5.372 L 3.863,5.401 L 3.85,5.429 L 3.839,5.457 L 3.828,5.487 L 3.819,5.516 L 3.813,5.546 L 3.807,5.577 L 3.802,5.608 L 3.8,5.639 L 3.8,5.669 L 3.8,5.669 L 3.8,5.7 L 3.802,5.732 L 3.807,5.761 L 3.813,5.792 L 3.819,5.823 L 3.828,5.852 L 3.839,5.881 L 3.85,5.91 L 3.863,5.939 L 3.877,5.967 L 3.893,5.992 L 3.91,6.018 L 3.929,6.043 L 3.949,6.067 L 3.97,6.09 L 3.992,6.112 L 4.014,6.133 L 4.039,6.153 L 4.064,6.171 L 4.09,6.188 L 4.117,6.204 L 4.145,6.218 L 4.174,6.231 L 4.203,6.242 L 4.232,6.253 L 4.262,6.261 L 4.293,6.269 L 4.323,6.274 L 4.354,6.277 L 4.386,6.279 L 4.418,6.28 L 4.418,6.28 L 4.449,6.279 L 4.479,6.277 L 4.51,6.274 L 4.542,6.269 L 4.572,6.261 L 4.602,6.253 L 4.632,6.242 L 4.661,6.231 L 4.689,6.218 L 4.717,6.204 L 4.744,6.188 L 4.77,6.171 L 4.796,6.153 L 4.819,6.133 L 4.842,6.112 L 4.864,6.09 L 4.886,6.067 L 4.905,6.043 L 4.924,6.018 L 4.941,5.992 L 4.957,5.967 L 4.972,5.939 L 4.985,5.91 L 4.996,5.881 L 5.006,5.852 L 5.015,5.823 L 5.023,5.792 L 5.028,5.761 L 5.032,5.732 L 5.034,5.7 L 5.034,5.669"
         id="path26" />
      <path
         style="fill:#ffe9aa;stroke:none;stroke-width:0.001"
         d="M 6.031,6.258 L 6.031,6.225 L 6.027,6.191 L 6.02,6.158 L 6.012,6.125 L 6.002,6.092 L 5.989,6.06 L 5.973,6.029 L 5.956,5.997 L 5.936,5.967 L 5.915,5.938 L 5.89,5.909 L 5.865,5.881 L 5.837,5.853 L 5.807,5.827 L 5.776,5.802 L 5.743,5.779 L 5.707,5.757 L 5.67,5.736 L 5.633,5.716 L 5.594,5.697 L 5.553,5.681 L 5.511,5.665 L 5.468,5.65 L 5.425,5.638 L 5.38,5.628 L 5.334,5.618 L 5.289,5.61 L 5.242,5.604 L 5.196,5.6 L 5.149,5.598 L 5.101,5.597 L 5.101,5.597 L 5.054,5.598 L 5.008,5.6 L 4.96,5.604 L 4.914,5.61 L 4.868,5.618 L 4.823,5.628 L 4.778,5.638 L 4.734,5.65 L 4.691,5.665 L 4.65,5.681 L 4.609,5.697 L 4.57,5.716 L 4.532,5.736 L 4.496,5.757 L 4.46,5.779 L 4.427,5.802 L 4.395,5.827 L 4.366,5.853 L 4.338,5.881 L 4.312,5.909 L 4.288,5.938 L 4.266,5.967 L 4.247,5.997 L 4.229,6.029 L 4.213,6.06 L 4.2,6.092 L 4.191,6.125 L 4.182,6.158 L 4.176,6.191 L 4.172,6.225 L 4.171,6.258 L 4.171,6.258 L 4.172,6.292 L 4.176,6.325 L 4.182,6.359 L 4.191,6.392 L 4.2,6.424 L 4.213,6.456 L 4.229,6.488 L 4.247,6.519 L 4.266,6.55 L 4.288,6.58 L 4.312,6.609 L 4.338,6.637 L 4.366,6.664 L 4.395,6.691 L 4.427,6.715 L 4.46,6.738 L 4.496,6.761 L 4.532,6.782 L 4.57,6.802 L 4.609,6.821 L 4.65,6.837 L 4.691,6.853 L 4.734,6.866 L 4.778,6.879 L 4.823,6.89 L 4.868,6.899 L 4.914,6.907 L 4.96,6.913 L 5.008,6.917 L 5.054,6.92 L 5.101,6.92 L 5.101,6.92 L 5.149,6.92 L 5.196,6.917 L 5.242,6.913 L 5.289,6.907 L 5.334,6.899 L 5.38,6.89 L 5.425,6.879 L 5.468,6.866 L 5.511,6.853 L 5.553,6.837 L 5.594,6.821 L 5.633,6.802 L 5.67,6.782 L 5.707,6.761 L 5.743,6.738 L 5.776,6.715 L 5.807,6.69 L 5.837,6.663 L 5.865,6.637 L 5.89,6.609 L 5.915,6.58 L 5.936,6.55 L 5.956,6.519 L 5.973,6.488 L 5.989,6.456 L 6.002,6.424 L 6.012,6.392 L 6.02,6.359 L 6.027,6.325 L 6.031,6.292 L 6.031,6.258"
         id="path28" />
      <path
         style="fill:#ffe9aa;stroke:none;stroke-width:0.001"
         d="M 8.264,6.6 L 8.261,6.56 L 8.257,6.521 L 8.247,6.481 L 8.235,6.443 L 8.219,6.403 L 8.2,6.365 L 8.177,6.327 L 8.151,6.29 L 8.122,6.254 L 8.089,6.22 L 8.053,6.185 L 8.015,6.151 L 7.973,6.12 L 7.929,6.088 L 7.881,6.059 L 7.832,6.03 L 7.78,6.004 L 7.725,5.979 L 7.669,5.955 L 7.609,5.934 L 7.549,5.914 L 7.487,5.894 L 7.423,5.878 L 7.357,5.864 L 7.291,5.851 L 7.223,5.839 L 7.155,5.831 L 7.085,5.824 L 7.016,5.819 L 6.945,5.815 L 6.875,5.815 L 6.875,5.815 L 6.805,5.815 L 6.735,5.819 L 6.665,5.824 L 6.596,5.831 L 6.527,5.839 L 6.459,5.851 L 6.393,5.864 L 6.328,5.878 L 6.263,5.894 L 6.202,5.914 L 6.14,5.934 L 6.082,5.955 L 6.025,5.979 L 5.971,6.004 L 5.919,6.03 L 5.869,6.059 L 5.822,6.088 L 5.778,6.12 L 5.735,6.151 L 5.697,6.185 L 5.661,6.22 L 5.629,6.254 L 5.6,6.29 L 5.573,6.327 L 5.551,6.365 L 5.531,6.403 L 5.516,6.443 L 5.503,6.481 L 5.494,6.521 L 5.488,6.56 L 5.486,6.6 L 5.486,6.6 L 5.488,6.639 L 5.494,6.68 L 5.503,6.719 L 5.516,6.758 L 5.531,6.798 L 5.551,6.836 L 5.573,6.873 L 5.6,6.91 L 5.629,6.946 L 5.661,6.982 L 5.697,7.015 L 5.735,7.048 L 5.778,7.081 L 5.822,7.112 L 5.869,7.142 L 5.919,7.169 L 5.971,7.197 L 6.025,7.222 L 6.082,7.245 L 6.14,7.267 L 6.202,7.287 L 6.263,7.305 L 6.328,7.322 L 6.393,7.337 L 6.459,7.35 L 6.527,7.361 L 6.596,7.37 L 6.665,7.377 L 6.735,7.382 L 6.805,7.385 L 6.875,7.386 L 6.875,7.386 L 6.945,7.385 L 7.016,7.382 L 7.085,7.377 L 7.155,7.37 L 7.223,7.361 L 7.291,7.35 L 7.357,7.337 L 7.423,7.322 L 7.487,7.305 L 7.549,7.287 L 7.609,7.267 L 7.669,7.245 L 7.725,7.222 L 7.78,7.197 L 7.832,7.169 L 7.881,7.142 L 7.929,7.112 L 7.973,7.081 L 8.015,7.048 L 8.053,7.015 L 8.089,6.982 L 8.122,6.946 L 8.151,6.91 L 8.177,6.873 L 8.2,6.836 L 8.219,6.798 L 8.235,6.758 L 8.247,6.719 L 8.257,6.68 L 8.261,6.639 L 8.264,6.6"
         id="path30" />
      <path
         style="fill:#ffe9aa;stroke:none;stroke-width:0.001"
         d="M 9.034,4.789 L 9.034,4.76 L 9.03,4.73 L 9.024,4.7 L 9.017,4.671 L 9.006,4.642 L 8.994,4.613 L 8.979,4.585 L 8.962,4.556 L 8.943,4.53 L 8.923,4.503 L 8.9,4.478 L 8.875,4.452 L 8.849,4.429 L 8.819,4.405 L 8.79,4.383 L 8.757,4.362 L 8.724,4.341 L 8.689,4.323 L 8.652,4.305 L 8.615,4.288 L 8.576,4.274 L 8.536,4.26 L 8.495,4.247 L 8.453,4.237 L 8.41,4.226 L 8.367,4.218 L 8.323,4.212 L 8.279,4.206 L 8.234,4.202 L 8.189,4.201 L 8.144,4.2 L 8.144,4.2 L 8.098,4.201 L 8.054,4.202 L 8.008,4.206 L 7.964,4.212 L 7.921,4.218 L 7.877,4.226 L 7.835,4.237 L 7.793,4.247 L 7.752,4.26 L 7.711,4.274 L 7.673,4.288 L 7.636,4.305 L 7.599,4.323 L 7.564,4.341 L 7.531,4.362 L 7.499,4.383 L 7.468,4.405 L 7.439,4.429 L 7.413,4.452 L 7.388,4.478 L 7.365,4.503 L 7.344,4.53 L 7.326,4.556 L 7.309,4.585 L 7.294,4.613 L 7.282,4.642 L 7.272,4.671 L 7.263,4.7 L 7.258,4.73 L 7.255,4.76 L 7.253,4.789 L 7.253,4.789 L 7.255,4.819 L 7.258,4.848 L 7.263,4.878 L 7.272,4.907 L 7.282,4.937 L 7.294,4.966 L 7.309,4.994 L 7.326,5.021 L 7.344,5.049 L 7.365,5.075 L 7.388,5.1 L 7.413,5.126 L 7.439,5.149 L 7.468,5.173 L 7.499,5.195 L 7.531,5.216 L 7.564,5.236 L 7.599,5.255 L 7.636,5.273 L 7.673,5.289 L 7.711,5.305 L 7.752,5.318 L 7.793,5.33 L 7.835,5.342 L 7.877,5.352 L 7.921,5.359 L 7.964,5.366 L 8.008,5.372 L 8.054,5.375 L 8.098,5.377 L 8.144,5.379 L 8.144,5.379 L 8.189,5.377 L 8.234,5.375 L 8.279,5.372 L 8.323,5.366 L 8.367,5.359 L 8.41,5.352 L 8.453,5.342 L 8.495,5.33 L 8.536,5.318 L 8.576,5.305 L 8.615,5.289 L 8.652,5.273 L 8.689,5.255 L 8.724,5.236 L 8.757,5.216 L 8.79,5.195 L 8.819,5.173 L 8.849,5.149 L 8.875,5.126 L 8.9,5.1 L 8.923,5.075 L 8.943,5.049 L 8.962,5.021 L 8.979,4.994 L 8.994,4.966 L 9.006,4.937 L 9.017,4.907 L 9.024,4.878 L 9.03,4.848 L 9.034,4.819 L 9.034,4.789"
         id="path32" />
      <path
         style="fill:#ffe9aa;stroke:none;stroke-width:0.001"
         d="M 9.287,5.546 L 9.285,5.516 L 9.283,5.487 L 9.277,5.457 L 9.269,5.427 L 9.258,5.397 L 9.246,5.369 L 9.232,5.341 L 9.215,5.314 L 9.196,5.286 L 9.176,5.26 L 9.153,5.234 L 9.128,5.21 L 9.102,5.186 L 9.073,5.162 L 9.043,5.14 L 9.012,5.119 L 8.979,5.099 L 8.943,5.081 L 8.908,5.062 L 8.871,5.046 L 8.833,5.031 L 8.793,5.017 L 8.752,5.005 L 8.71,4.994 L 8.668,4.983 L 8.625,4.975 L 8.581,4.969 L 8.537,4.963 L 8.493,4.96 L 8.448,4.958 L 8.403,4.957 L 8.403,4.957 L 8.358,4.958 L 8.314,4.96 L 8.269,4.963 L 8.226,4.969 L 8.182,4.975 L 8.139,4.983 L 8.097,4.994 L 8.055,5.005 L 8.014,5.017 L 7.974,5.031 L 7.936,5.046 L 7.899,5.062 L 7.862,5.081 L 7.829,5.099 L 7.795,5.119 L 7.762,5.14 L 7.733,5.162 L 7.705,5.186 L 7.679,5.21 L 7.654,5.234 L 7.631,5.26 L 7.61,5.286 L 7.592,5.314 L 7.575,5.341 L 7.561,5.369 L 7.547,5.397 L 7.538,5.427 L 7.53,5.457 L 7.524,5.487 L 7.521,5.516 L 7.52,5.546 L 7.52,5.546 L 7.521,5.575 L 7.524,5.604 L 7.53,5.635 L 7.538,5.664 L 7.547,5.694 L 7.561,5.722 L 7.575,5.751 L 7.592,5.777 L 7.61,5.805 L 7.631,5.832 L 7.654,5.857 L 7.679,5.881 L 7.705,5.906 L 7.733,5.93 L 7.762,5.951 L 7.795,5.972 L 7.829,5.992 L 7.862,6.01 L 7.899,6.029 L 7.936,6.045 L 7.974,6.06 L 8.014,6.075 L 8.055,6.087 L 8.097,6.097 L 8.139,6.108 L 8.182,6.116 L 8.226,6.122 L 8.269,6.128 L 8.314,6.131 L 8.358,6.133 L 8.403,6.134 L 8.403,6.134 L 8.448,6.133 L 8.493,6.131 L 8.537,6.128 L 8.581,6.122 L 8.625,6.116 L 8.668,6.108 L 8.71,6.097 L 8.752,6.087 L 8.793,6.075 L 8.833,6.06 L 8.871,6.045 L 8.908,6.029 L 8.943,6.01 L 8.979,5.992 L 9.012,5.972 L 9.043,5.951 L 9.073,5.93 L 9.102,5.906 L 9.128,5.881 L 9.153,5.857 L 9.176,5.832 L 9.196,5.805 L 9.215,5.777 L 9.232,5.751 L 9.246,5.722 L 9.258,5.694 L 9.269,5.664 L 9.277,5.635 L 9.283,5.604 L 9.285,5.575 L 9.287,5.546"
         id="path34" />
      <path
         style="fill:#ffe9aa;stroke:none;stroke-width:0.001"
         d="M 9.114,6.171 L 9.113,6.122 L 9.109,6.074 L 9.105,6.026 L 9.097,5.977 L 9.087,5.929 L 9.074,5.881 L 9.06,5.836 L 9.043,5.79 L 9.024,5.745 L 9.005,5.702 L 8.982,5.66 L 8.957,5.619 L 8.931,5.579 L 8.902,5.542 L 8.872,5.504 L 8.841,5.471 L 8.808,5.438 L 8.774,5.407 L 8.738,5.377 L 8.701,5.351 L 8.663,5.326 L 8.624,5.304 L 8.584,5.283 L 8.543,5.264 L 8.5,5.248 L 8.457,5.236 L 8.413,5.224 L 8.37,5.215 L 8.326,5.21 L 8.282,5.206 L 8.238,5.205 L 8.238,5.205 L 8.193,5.206 L 8.149,5.21 L 8.104,5.215 L 8.061,5.224 L 8.018,5.236 L 7.974,5.248 L 7.933,5.264 L 7.892,5.283 L 7.851,5.304 L 7.811,5.326 L 7.773,5.351 L 7.736,5.377 L 7.701,5.407 L 7.666,5.438 L 7.633,5.471 L 7.602,5.504 L 7.572,5.542 L 7.544,5.579 L 7.517,5.619 L 7.493,5.66 L 7.471,5.702 L 7.45,5.745 L 7.431,5.79 L 7.415,5.836 L 7.401,5.881 L 7.388,5.929 L 7.378,5.977 L 7.371,6.026 L 7.365,6.074 L 7.361,6.122 L 7.36,6.171 L 7.36,6.171 L 7.361,6.22 L 7.365,6.27 L 7.371,6.318 L 7.378,6.366 L 7.388,6.414 L 7.401,6.461 L 7.415,6.507 L 7.431,6.553 L 7.45,6.597 L 7.471,6.641 L 7.493,6.684 L 7.517,6.724 L 7.544,6.763 L 7.572,6.801 L 7.602,6.837 L 7.633,6.873 L 7.666,6.906 L 7.701,6.937 L 7.736,6.965 L 7.773,6.992 L 7.811,7.017 L 7.851,7.04 L 7.892,7.06 L 7.933,7.079 L 7.974,7.094 L 8.018,7.108 L 8.061,7.119 L 8.104,7.127 L 8.149,7.134 L 8.193,7.138 L 8.238,7.139 L 8.238,7.139 L 8.282,7.138 L 8.326,7.134 L 8.37,7.127 L 8.413,7.119 L 8.457,7.108 L 8.5,7.094 L 8.543,7.079 L 8.584,7.06 L 8.624,7.04 L 8.663,7.017 L 8.701,6.992 L 8.738,6.965 L 8.774,6.937 L 8.808,6.906 L 8.841,6.873 L 8.872,6.837 L 8.902,6.801 L 8.931,6.763 L 8.957,6.69 L 8.982,6.684 L 9.005,6.641 L 9.024,6.597 L 9.043,6.553 L 9.06,6.507 L 9.074,6.461 L 9.087,6.414 L 9.097,6.366 L 9.105,6.318 L 9.109,6.27 L 9.113,6.22 L 9.114,6.171"
         id="path36" />
      <path
         d="M 8.4236536,5.6556536 L 8.4206536,5.6066536 L 8.4136536,5.5576536 L 8.4026536,5.5086536 L 8.3866536,5.4606536 L 8.3666536,5.4136536 L 8.3416536,5.3666536 L 8.3126536,5.3196536 L 8.2786536,5.2736536 L 8.2416536,5.2286536 L 8.1996536,5.1866536 L 8.1536536,5.1436536 L 8.1046536,5.1026536 L 8.0506536,5.0636536 L 7.9936536,5.0246536 L 7.9326536,4.9886536 L 7.8696536,4.9536536 L 7.8026536,4.9206536 L 7.7316536,4.8916536 L 7.6596536,4.8616536 L 7.5846536,4.8346536 L 7.5066536,4.8096536 L 7.4266536,4.7876536 L 7.3446536,4.7666536 L 7.2616536,4.7486536 L 7.1756536,4.7326536 L 7.0886536,4.7186536 L 7.0016536,4.7086536 L 6.9126536,4.6986536 L 6.8236536,4.6936536 L 6.7336536,4.6896536 L 6.6426536,4.6886536 L 6.6426536,4.6886536 L 6.5526536,4.6896536 L 6.4626536,4.6936536 L 6.3726536,4.6986536 L 6.2836536,4.7086536 L 6.1966536,4.7186536 L 6.1096536,4.7326536 L 6.0236536,4.7486536 L 5.9406536,4.7666536 L 5.8576536,4.7876536 L 5.7796536,4.8096536 L 5.7016536,4.8346536 L 5.6246536,4.8616536 L 5.5526536,4.8916536 L 5.4836536,4.9206536 L 5.4156536,4.9536536 L 5.3516536,4.9886536 L 5.2926536,5.0246536 L 5.2346536,5.0636536 L 5.1806536,5.1026536 L 5.1316536,5.1436536 L 5.0856536,5.1866536 L 5.0446536,5.2286536 L 5.0066536,5.2736536 L 4.9726536,5.3196536 L 4.9436536,5.3666536 L 4.9196536,5.4136536 L 4.8976536,5.4606536 L 4.8826536,5.5086536 L 4.8716536,5.5576536 L 4.8636536,5.6066536 L 4.8626536,5.6556536 L 4.8626536,5.6556536 L 4.8636536,5.7046536 L 4.8716536,5.7536536 L 4.8826536,5.8026536 L 4.8976536,5.8506536 L 4.9196536,5.8986536 L 4.9436536,5.9446536 L 4.9726536,5.9916536 L 5.0066536,6.0376536 L 5.0446536,6.0826536 L 5.0856536,6.1256536 L 5.1316536,6.1666536 L 5.1806536,6.2076536 L 5.2346536,6.2476536 L 5.2926536,6.2866536 L 5.3516536,6.3226536 L 5.4156536,6.3566536 L 5.4836536,6.3896536 L 5.5526536,6.4196536 L 5.6246536,6.4506536 L 5.7016536,6.4766536 L 5.7796536,6.5016536 L 5.8576536,6.5236536 L 5.9406536,6.5446536 L 6.0236536,6.5626536 L 6.1096536,6.5786536 L 6.1966536,6.5926536 L 6.2836536,6.6026536 L 6.3726536,6.6116536 L 6.4626536,6.6176536 L 6.5526536,6.6216536 L 6.6426536,6.6226536 L 6.6426536,6.6226536 L 6.7336536,6.6216536 L 6.8236536,6.6176536 L 6.9126536,6.6116536 L 7.0016536,6.6026536 L 7.0886536,6.5926536 L 7.1756536,6.5786536 L 7.2616536,6.5626536 L 7.3446536,6.5446536 L 7.4266536,6.5236536 L 7.5066536,6.5016536 L 7.5846536,6.4766536 L 7.6596536,6.4506536 L 7.7316536,6.4196536 L 7.8026536,6.3896536 L 7.8696536,6.3566536 L 7.9326536,6.3226536 L 7.9936536,6.2866536 L 8.0506536,6.2476536 L 8.1046536,6.2076536 L 8.1536536,6.1666536 L 8.1996536,6.1256536 L 8.2416536,6.0826536 L 8.2786536,6.0376536 L 8.3126536,5.9916536 L 8.3416536,5.9446536 L 8.3666536,5.8986536 L 8.3866536,5.8506536 L 8.4026536,5.8026536 L 8.4136536,5.7536536 L 8.4206536,5.7046536 L 8.4236536,5.6556536"
         id="path38"
         style="fill:#ffe9aa;stroke:none;stroke-width:0.001" />
      <path
         style="fill:#ffe9aa;stroke:none;stroke-width:0.001"
         d="M 6.882,4.506 L 8.061,4.339 L 8.046,4.302 L 8.027,4.266 L 8.007,4.229 L 7.983,4.194 L 7.957,4.159 L 7.927,4.126 L 7.896,4.093 L 7.86,4.062 L 7.824,4.031 L 7.784,4.002 L 7.742,3.974 L 7.698,3.949 L 7.652,3.923 L 7.603,3.899 L 7.553,3.877 L 7.502,3.857 L 7.449,3.837 L 7.394,3.821 L 7.338,3.806 L 7.281,3.792 L 7.222,3.78 L 7.163,3.771 L 7.104,3.762 L 7.044,3.757 L 6.983,3.753 L 6.922,3.75 L 6.861,3.75 L 6.8,3.751 L 6.738,3.755 L 6.679,3.761 L 6.618,3.767 L 6.559,3.778 L 6.5,3.788 L 6.442,3.802 L 6.386,3.816 L 6.331,3.833 L 6.277,3.851 L 6.225,3.87 L 6.175,3.893 L 6.127,3.916 L 6.08,3.94 L 6.035,3.966 L 5.993,3.994 L 5.953,4.023 L 5.915,4.052 L 5.879,4.084 L 5.846,4.116 L 5.815,4.15 L 5.789,4.184 L 5.763,4.218 L 5.741,4.254 L 5.723,4.291 L 5.707,4.328 L 5.694,4.365 L 6.882,4.506"
         id="path40" />
      <path
         style="fill:none;stroke:#805d00;stroke-width:0.00273638"
         d="M 8.061,4.337 L 8.045,4.3 L 8.027,4.264 L 8.007,4.228 L 7.983,4.193 L 7.955,4.158 L 7.926,4.125 L 7.895,4.093 L 7.859,4.061 L 7.822,4.031 L 7.784,4.002 L 7.741,3.973 L 7.698,3.947 L 7.651,3.922 L 7.603,3.899 L 7.553,3.876 L 7.502,3.857 L 7.449,3.837 L 7.393,3.82 L 7.337,3.804 L 7.281,3.791 L 7.222,3.78 L 7.163,3.771 L 7.103,3.762 L 7.043,3.757 L 6.983,3.753 L 6.921,3.75 L 6.86,3.75 L 6.8,3.751 L 6.739,3.755 L 6.678,3.761 L 6.618,3.767 L 6.559,3.777 L 6.501,3.788 L 6.443,3.802 L 6.386,3.816 L 6.332,3.833 L 6.278,3.851 L 6.226,3.87 L 6.175,3.892 L 6.127,3.916 L 6.08,3.94 L 6.035,3.965 L 5.993,3.994 L 5.953,4.022 L 5.915,4.052 L 5.879,4.084 L 5.847,4.115 L 5.816,4.148 L 5.789,4.183 L 5.764,4.217 L 5.743,4.253 L 5.723,4.289 L 5.707,4.326 L 5.695,4.363"
         id="path42" />
      <path
         style="fill:#ffe9aa;stroke:none;stroke-width:0.001"
         d="M 5.28,4.899 L 5.874,4.318 L 5.837,4.296 L 5.798,4.272 L 5.759,4.251 L 5.719,4.233 L 5.678,4.215 L 5.635,4.2 L 5.591,4.186 L 5.547,4.174 L 5.501,4.164 L 5.456,4.155 L 5.41,4.15 L 5.363,4.145 L 5.317,4.143 L 5.27,4.143 L 5.223,4.143 L 5.177,4.147 L 5.13,4.151 L 5.084,4.159 L 5.039,4.168 L 4.995,4.18 L 4.95,4.192 L 4.907,4.206 L 4.864,4.223 L 4.823,4.241 L 4.783,4.261 L 4.745,4.282 L 4.707,4.305 L 4.671,4.329 L 4.637,4.355 L 4.604,4.383 L 4.573,4.412 L 4.544,4.441 L 4.517,4.473 L 4.492,4.505 L 4.468,4.539 L 4.447,4.572 L 4.428,4.607 L 4.411,4.643 L 4.396,4.68 L 4.384,4.717 L 4.375,4.754 L 4.366,4.791 L 4.36,4.83 L 4.358,4.868 L 4.357,4.905 L 4.359,4.944 L 4.362,4.983 L 4.369,5.02 L 5.28,4.899"
         id="path44" />
      <path
         style="fill:none;stroke:#805d00;stroke-width:0.00273638"
         d="M 5.871,4.317 L 5.834,4.293 L 5.797,4.271 L 5.757,4.251 L 5.716,4.232 L 5.674,4.214 L 5.632,4.2 L 5.588,4.185 L 5.544,4.173 L 5.499,4.164 L 5.453,4.155 L 5.407,4.149 L 5.361,4.145 L 5.314,4.143 L 5.267,4.143 L 5.221,4.143 L 5.175,4.147 L 5.127,4.152 L 5.082,4.159 L 5.037,4.168 L 4.992,4.18 L 4.948,4.192 L 4.905,4.208 L 4.863,4.225 L 4.821,4.242 L 4.781,4.262 L 4.743,4.284 L 4.706,4.307 L 4.671,4.33 L 4.635,4.357 L 4.604,4.384 L 4.572,4.413 L 4.543,4.443 L 4.516,4.474 L 4.491,4.506 L 4.468,4.54 L 4.447,4.573 L 4.428,4.609 L 4.41,4.644 L 4.396,4.681 L 4.384,4.717 L 4.373,4.755 L 4.366,4.793 L 4.36,4.831 L 4.358,4.868 L 4.357,4.907 L 4.36,4.945 L 4.363,4.983 L 4.369,5.021"
         id="path46" />
      <path
         style="fill:#ffe9aa;stroke:none;stroke-width:0.001"
         d="M 5.114,6.251 L 4.158,6.231 L 4.158,6.265 L 4.16,6.299 L 4.164,6.334 L 4.172,6.368 L 4.181,6.402 L 4.192,6.435 L 4.207,6.468 L 4.223,6.5 L 4.242,6.531 L 4.263,6.562 L 4.285,6.593 L 4.312,6.622 L 4.338,6.651 L 4.368,6.678 L 4.398,6.704 L 4.431,6.729 L 4.466,6.753 L 4.501,6.775 L 4.539,6.798 L 4.578,6.817 L 4.619,6.836 L 4.661,6.853 L 4.704,6.868 L 4.747,6.882 L 4.792,6.895 L 4.838,6.905 L 4.884,6.915 L 4.931,6.922 L 4.978,6.928 L 5.026,6.932 L 5.074,6.935 L 5.123,6.935 L 5.17,6.933 L 5.218,6.931 L 5.266,6.926 L 5.313,6.92 L 5.361,6.911 L 5.406,6.902 L 5.453,6.891 L 5.496,6.878 L 5.54,6.862 L 5.583,6.847 L 5.623,6.829 L 5.664,6.811 L 5.702,6.79 L 5.74,6.768 L 5.114,6.251"
         id="path48" />
      <path
         style="fill:none;stroke:#805d00;stroke-width:0.00273638"
         d="M 4.159,6.231 L 4.157,6.265 L 4.161,6.299 L 4.164,6.333 L 4.172,6.367 L 4.181,6.401 L 4.193,6.435 L 4.207,6.468 L 4.224,6.5 L 4.242,6.531 L 4.262,6.562 L 4.285,6.592 L 4.31,6.621 L 4.338,6.65 L 4.366,6.678 L 4.397,6.704 L 4.429,6.729 L 4.464,6.752 L 4.5,6.775 L 4.537,6.796 L 4.577,6.816 L 4.617,6.835 L 4.658,6.852 L 4.701,6.867 L 4.746,6.882 L 4.79,6.894 L 4.835,6.904 L 4.881,6.915 L 4.929,6.921 L 4.976,6.928 L 5.023,6.931 L 5.071,6.935 L 5.12,6.935 L 5.167,6.933 L 5.215,6.931 L 5.263,6.927 L 5.31,6.92 L 5.357,6.911 L 5.402,6.903 L 5.449,6.891 L 5.493,6.878 L 5.536,6.864 L 5.579,6.848 L 5.62,6.831 L 5.661,6.812 L 5.7,6.792 L 5.736,6.77"
         id="path50" />
      <path
         style="fill:#ffe9aa;stroke:none;stroke-width:0.001"
         d="M 8.157,4.775 L 8.999,4.966 L 9.013,4.938 L 9.024,4.909 L 9.034,4.879 L 9.04,4.85 L 9.046,4.821 L 9.047,4.791 L 9.047,4.76 L 9.046,4.731 L 9.041,4.701 L 9.034,4.672 L 9.025,4.642 L 9.014,4.614 L 9,4.586 L 8.985,4.556 L 8.967,4.53 L 8.947,4.503 L 8.924,4.477 L 8.901,4.45 L 8.875,4.427 L 8.848,4.403 L 8.819,4.38 L 8.787,4.358 L 8.755,4.338 L 8.719,4.318 L 8.684,4.3 L 8.647,4.284 L 8.609,4.267 L 8.569,4.253 L 8.529,4.239 L 8.487,4.228 L 8.444,4.217 L 8.402,4.209 L 8.357,4.201 L 8.313,4.196 L 8.269,4.191 L 8.223,4.188 L 8.179,4.186 L 8.134,4.187 L 8.089,4.188 L 8.044,4.192 L 7.999,4.196 L 7.955,4.202 L 7.911,4.209 L 7.867,4.218 L 8.157,4.775"
         id="path52" />
      <path
         style="fill:none;stroke:#805d00;stroke-width:0.00273638"
         d="M 8.921,5.074 L 8.998,4.968 L 9.012,4.938 L 9.024,4.911 L 9.033,4.881 L 9.04,4.851 L 9.045,4.822 L 9.046,4.793 L 9.047,4.762 L 9.045,4.732 L 9.041,4.702 L 9.034,4.673 L 9.025,4.644 L 9.014,4.615 L 9.001,4.586 L 8.986,4.558 L 8.967,4.531 L 8.947,4.503 L 8.926,4.478 L 8.902,4.452 L 8.876,4.428 L 8.849,4.403 L 8.819,4.382 L 8.788,4.36 L 8.756,4.339 L 8.722,4.319 L 8.685,4.3 L 8.649,4.284 L 8.61,4.268 L 8.571,4.254 L 8.53,4.241 L 8.489,4.229 L 8.447,4.217 L 8.403,4.209 L 8.36,4.201 L 8.316,4.196 L 8.272,4.192 L 8.226,4.188 L 8.181,4.186 L 8.135,4.186 L 8.091,4.188 L 8.045,4.192 L 8.001,4.196 L 7.957,4.201 L 7.913,4.209 L 7.87,4.217"
         id="path54" />
      <path
         style="fill:#ffe9aa;stroke:none;stroke-width:0.001"
         d="M 8.277,5.553 L 9.224,5.795 L 9.243,5.764 L 9.259,5.732 L 9.273,5.699 L 9.285,5.666 L 9.292,5.633 L 9.298,5.6 L 9.299,5.565 L 9.299,5.532 L 9.296,5.499 L 9.29,5.464 L 9.281,5.431 L 9.27,5.399 L 9.255,5.366 L 9.239,5.334 L 9.218,5.302 L 9.196,5.272 L 9.171,5.243 L 9.143,5.213 L 9.114,5.185 L 8.277,5.553"
         id="path56" />
      <path
         style="fill:none;stroke:#805d00;stroke-width:0.00273638"
         d="M 9.104,5.905 L 9.223,5.797 L 9.241,5.765 L 9.259,5.732 L 9.273,5.7 L 9.284,5.666 L 9.292,5.633 L 9.298,5.6 L 9.3,5.565 L 9.299,5.532 L 9.296,5.497 L 9.289,5.464 L 9.281,5.43 L 9.27,5.397 L 9.255,5.365 L 9.238,5.333 L 9.217,5.301 L 9.195,5.271 L 9.169,5.24 L 9.142,5.211 L 9.112,5.183 L 8.921,5.074"
         id="path58" />
      <path
         style="fill:#ffe9aa;stroke:none;stroke-width:0.001"
         d="M 8.237,6.192 L 7.938,7.112 L 7.982,7.127 L 8.027,7.139 L 8.071,7.15 L 8.118,7.158 L 8.163,7.164 L 8.208,7.166 L 8.256,7.167 L 8.301,7.164 L 8.347,7.16 L 8.392,7.152 L 8.437,7.142 L 8.482,7.131 L 8.526,7.115 L 8.569,7.098 L 8.611,7.079 L 8.653,7.057 L 8.693,7.034 L 8.732,7.007 L 8.771,6.978 L 8.807,6.948 L 8.841,6.916 L 8.875,6.882 L 8.907,6.846 L 8.937,6.808 L 8.965,6.77 L 8.991,6.729 L 9.016,6.687 L 9.038,6.643 L 9.058,6.599 L 9.076,6.553 L 9.092,6.506 L 9.106,6.459 L 9.117,6.411 L 9.127,6.362 L 9.133,6.314 L 9.138,6.264 L 9.139,6.214 L 9.139,6.165 L 9.137,6.116 L 9.132,6.066 L 9.125,6.017 L 9.116,5.968 L 9.104,5.92 L 8.237,6.192"
         id="path60" />
      <path
         style="fill:none;stroke:#805d00;stroke-width:0.00273638"
         d="M 7.94,7.113 L 7.985,7.127 L 8.029,7.141 L 8.074,7.151 L 8.12,7.159 L 8.166,7.164 L 8.211,7.167 L 8.257,7.168 L 8.303,7.164 L 8.35,7.16 L 8.395,7.152 L 8.44,7.142 L 8.484,7.13 L 8.528,7.114 L 8.571,7.097 L 8.614,7.078 L 8.655,7.056 L 8.695,7.032 L 8.734,7.007 L 8.772,6.978 L 8.808,6.947 L 8.843,6.915 L 8.876,6.881 L 8.908,6.845 L 8.938,6.807 L 8.967,6.767 L 8.992,6.727 L 9.017,6.684 L 9.039,6.641 L 9.058,6.597 L 9.076,6.551 L 9.092,6.504 L 9.106,6.456 L 9.117,6.409 L 9.127,6.361 L 9.134,6.312 L 9.138,6.262 L 9.139,6.212 L 9.139,6.163 L 9.136,6.113 L 9.132,6.063 L 9.124,6.014 L 9.114,5.966 L 9.104,5.918"
         id="path62" />
      <path
         style="fill:#ffe9aa;stroke:none;stroke-width:0.001"
         d="M 4.45,5.669 L 4.404,5.046 L 4.371,5.049 L 4.34,5.053 L 4.306,5.06 L 4.274,5.067 L 4.242,5.077 L 4.211,5.087 L 4.181,5.1 L 4.151,5.115 L 4.122,5.129 L 4.094,5.146 L 4.066,5.165 L 4.04,5.185 L 4.014,5.205 L 3.991,5.227 L 3.968,5.25 L 3.946,5.273 L 3.926,5.299 L 3.908,5.326 L 3.889,5.352 L 3.873,5.38 L 3.86,5.409 L 3.846,5.438 L 3.834,5.467 L 3.824,5.499 L 3.817,5.529 L 3.81,5.561 L 3.804,5.591 L 3.802,5.624 L 3.8,5.655 L 3.8,5.687 L 3.802,5.719 L 3.805,5.751 L 3.811,5.782 L 3.817,5.814 L 3.826,5.844 L 3.835,5.874 L 3.847,5.905 L 3.86,5.934 L 3.875,5.962 L 3.891,5.99 L 3.91,6.017 L 3.928,6.042 L 3.949,6.067 L 3.971,6.092 L 3.994,6.116 L 4.018,6.137 L 4.044,6.157 L 4.07,6.176 L 4.098,6.195 L 4.125,6.212 L 4.155,6.227 L 4.45,5.669"
         id="path64" />
      <path
         style="fill:none;stroke:#805d00;stroke-width:0.00273638"
         d="M 4.404,5.046 L 4.373,5.049 L 4.34,5.053 L 4.308,5.06 L 4.277,5.067 L 4.245,5.076 L 4.214,5.086 L 4.185,5.099 L 4.156,5.112 L 4.126,5.127 L 4.1,5.144 L 4.072,5.161 L 4.046,5.18 L 4.021,5.199 L 3.997,5.221 L 3.973,5.244 L 3.952,5.267 L 3.932,5.291 L 3.913,5.317 L 3.895,5.343 L 3.88,5.37 L 3.865,5.397 L 3.851,5.426 L 3.839,5.455 L 3.828,5.484 L 3.819,5.515 L 3.813,5.546 L 3.806,5.576 L 3.802,5.607 L 3.8,5.639 L 3.8,5.67 L 3.8,5.701 L 3.804,5.732 L 3.807,5.764 L 3.813,5.794 L 3.82,5.824 L 3.828,5.855 L 3.839,5.885 L 3.852,5.914 L 3.865,5.942 L 3.88,5.971 L 3.896,5.997 L 3.914,6.023 L 3.932,6.049 L 3.952,6.073 L 3.974,6.096 L 3.998,6.119 L 4.022,6.141 L 4.047,6.159 L 4.072,6.178 L 4.1,6.196 L 4.128,6.212 L 4.156,6.228"
         id="path66" />
      <path
         style="fill:#ffe9aa;stroke:none;stroke-width:0.001"
         d="M 6.862,6.672 L 5.507,6.745 L 5.516,6.782 L 5.527,6.817 L 5.542,6.853 L 5.562,6.888 L 5.583,6.923 L 5.609,6.957 L 5.637,6.99 L 5.668,7.023 L 5.703,7.054 L 5.741,7.086 L 5.78,7.114 L 5.823,7.143 L 5.869,7.171 L 5.917,7.197 L 5.968,7.221 L 6.02,7.244 L 6.076,7.266 L 6.132,7.287 L 6.191,7.305 L 6.251,7.323 L 6.314,7.338 L 6.377,7.352 L 6.441,7.364 L 6.508,7.375 L 6.574,7.383 L 6.642,7.391 L 6.708,7.395 L 6.777,7.399 L 6.846,7.4 L 6.914,7.399 L 6.983,7.397 L 7.051,7.392 L 7.118,7.387 L 7.185,7.379 L 7.251,7.37 L 7.316,7.358 L 7.38,7.345 L 7.443,7.33 L 7.505,7.313 L 7.564,7.296 L 7.621,7.276 L 7.677,7.255 L 7.731,7.232 L 7.783,7.209 L 7.833,7.184 L 7.879,7.156 L 7.923,7.129 L 7.964,7.099 L 8.004,7.069 L 8.04,7.039 L 8.072,7.007 L 8.102,6.974 L 8.129,6.94 L 8.152,6.905 L 6.862,6.672"
         id="path68" />
      <path
         style="fill:none;stroke:#805d00;stroke-width:0.00273638"
         d="M 5.508,6.746 L 5.516,6.782 L 5.528,6.817 L 5.542,6.854 L 5.562,6.89 L 5.584,6.924 L 5.609,6.957 L 5.637,6.99 L 5.668,7.023 L 5.703,7.054 L 5.741,7.086 L 5.78,7.114 L 5.823,7.143 L 5.87,7.171 L 5.917,7.197 L 5.968,7.221 L 6.02,7.244 L 6.076,7.266 L 6.132,7.287 L 6.191,7.305 L 6.251,7.323 L 6.313,7.338 L 6.376,7.352 L 6.44,7.364 L 6.507,7.374 L 6.573,7.383 L 6.641,7.39 L 6.708,7.395 L 6.776,7.399 L 6.844,7.4 L 6.913,7.399 L 6.981,7.397 L 7.048,7.392 L 7.117,7.387 L 7.184,7.379 L 7.249,7.37 L 7.315,7.358 L 7.378,7.346 L 7.441,7.33 L 7.502,7.314 L 7.561,7.296 L 7.62,7.276 L 7.675,7.256 L 7.729,7.233 L 7.781,7.209 L 7.83,7.184 L 7.877,7.158 L 7.921,7.129 L 7.963,7.101 L 8.002,7.07 L 8.038,7.04 L 8.071,7.007 L 8.101,6.974 L 8.127,6.941 L 8.151,6.907"
         id="path70" />
    </g>
    <text
       id="text2279"
       y="6.7152214"
       x="11.148298"
       style="font-size:0.2340368px"
       xml:space="preserve"><tspan
         y="6.7152214"
         x="11.148298"
         id="tspan2281"
         sodipodi:role="line">Network</tspan></text>
  </g>
  <g
     id="g3888"
     transform="matrix(2.5862646,0,0,2.5862646,-15.906768,-8.5761501)">
    <g
       transform="matrix(0.5738931,0,0,0.5638309,0.2874596,5.1245197)"
       id="g2665">
      <path
         style="fill:#00b4ff;stroke:none;stroke-width:0.001"
         d="M 7.9418278,1.7135588 L 7.9548278,1.7265588 L 7.8998278,1.8065588 L 7.8998278,1.8375588 L 7.9728278,1.8815588 L 7.9978278,1.8755588 L 8.0458278,1.7755588 L 8.0648278,1.7885588 L 8.2358278,1.4465588 L 8.2358278,1.9435588 L 8.2718278,1.9435588 L 8.0648278,2.6515588 L 8.0948278,2.6765588 L 7.9908278,2.6955588 L 7.9238278,2.7445588 L 7.9238278,2.8005588 L 8.2418278,2.8005588 L 8.2478278,2.7515588 L 8.2418278,2.7135588 L 8.2778278,2.7075588 L 8.4558278,2.1545588 L 8.6328278,2.7075588 L 8.6688278,2.7135588 L 8.6628278,2.7575588 L 8.6748278,2.8005588 L 8.9858278,2.8005588 L 8.9858278,2.7445588 L 8.9198278,2.6955588 L 8.8158278,2.6765588 L 8.8398278,2.6515588 L 8.6388278,1.9435588 L 8.6748278,1.9435588 L 8.6748278,1.4465588 L 8.8398278,1.7945588 L 8.8588278,1.7755588 L 8.9068278,1.8755588 L 8.9378278,1.8815588 L 9.0108278,1.8375588 L 9.0108278,1.8065588 L 8.9558278,1.7265588 L 8.9678278,1.7135588 L 8.7058278,1.1855588 L 8.5528278,1.1855588 L 8.5038278,1.1355588 L 8.3878278,1.1355588 L 8.3458278,1.1855588 L 8.2048278,1.1855588 L 7.9418278,1.7135588"
         id="path2542" />
      <path
         style="fill:#00b4ff;stroke:none;stroke-width:0.001"
         d="M 7.9488278,1.7195588 L 7.9608278,1.7325588 L 7.9058278,1.8135588 L 7.9058278,1.8445588 L 7.9788278,1.8875588 L 8.0038278,1.8815588 L 8.0518278,1.7815588 L 8.0708278,1.7945588 L 8.2418278,1.4525588 L 8.2418278,1.9495588 L 8.2778278,1.9495588 L 8.0708278,2.6575588 L 8.1008278,2.6825588 L 7.9978278,2.7015588 L 7.9298278,2.7515588 L 7.9298278,2.8075588 L 8.2478278,2.8075588 L 8.2538278,2.7575588 L 8.2478278,2.7195588 L 8.2848278,2.7135588 L 8.4618278,2.1615588 L 8.6388278,2.7135588 L 8.6748278,2.7195588 L 8.6688278,2.7635588 L 8.6808278,2.8075588 L 8.9928278,2.8075588 L 8.9928278,2.7515588 L 8.9258278,2.7015588 L 8.8218278,2.6825588 L 8.8458278,2.6575588 L 8.6448278,1.9495588 L 8.6808278,1.9495588 L 8.6808278,1.4525588 L 8.8458278,1.8005588 L 8.8638278,1.7815588 L 8.9138278,1.8815588 L 8.9438278,1.8875588 L 9.0168278,1.8445588 L 9.0168278,1.8135588 L 8.9618278,1.7325588 L 8.9738278,1.7195588 L 8.7118278,1.1915588 L 8.5588278,1.1915588 L 8.5098278,1.1425588 L 8.3938278,1.1425588 L 8.3518278,1.1915588 L 8.2108278,1.1915588 L 7.9488278,1.7195588"
         id="path2544" />
      <path
         style="fill:none;stroke:#aae6ff;stroke-width:0.00175797"
         d="M 7.9488278,1.7195588 L 7.9608278,1.7325588 L 7.9058278,1.8135588 L 7.9058278,1.8445588 L 7.9788278,1.8875588 L 8.0038278,1.8815588 L 8.0518278,1.7815588 L 8.0708278,1.7945588 L 8.2418278,1.4525588 L 8.2418278,1.9495588 L 8.2778278,1.9495588 L 8.0708278,2.6575588 L 8.1008278,2.6825588 L 7.9978278,2.7015588 L 7.9298278,2.7515588 L 7.9298278,2.8075588 L 8.2478278,2.8075588 L 8.2538278,2.7575588 L 8.2478278,2.7195588 L 8.2848278,2.7135588 L 8.4618278,2.1615588 L 8.6388278,2.7135588 L 8.6748278,2.7195588 L 8.6688278,2.7635588 L 8.6808278,2.8075588 L 8.9928278,2.8075588 L 8.9928278,2.7515588 L 8.9258278,2.7015588 L 8.8218278,2.6825588 L 8.8458278,2.6575588 L 8.6448278,1.9495588 L 8.6808278,1.9495588 L 8.6808278,1.4525588 L 8.8458278,1.8005588 L 8.8638278,1.7815588 L 8.9138278,1.8815588 L 8.9438278,1.8875588 L 9.0168278,1.8445588 L 9.0168278,1.8135588 L 8.9618278,1.7325588 L 8.9738278,1.7195588 L 8.7118278,1.1915588 L 8.5588278,1.1915588 L 8.5098278,1.1425588 L 8.3938278,1.1425588 L 8.3518278,1.1915588 L 8.2108278,1.1915588 L 7.9488278,1.7195588"
         id="path2546" />
      <path
         style="fill:#00b4ff;stroke:none;stroke-width:0.001"
         d="M 8.4858278,0.8075588 L 8.4188278,0.8075588 L 8.3878278,0.8125588 L 8.3388278,0.8565588 L 8.3328278,0.9005588 L 8.3328278,0.9555588 L 8.3268278,0.9805588 L 8.3268278,1.0055588 L 8.3578278,1.1175588 L 8.3878278,1.1485588 L 8.4558278,1.1605588 L 8.5168278,1.1485588 L 8.5468278,1.1175588 L 8.5708278,1.0425588 L 8.5838278,1.0055588 L 8.5838278,0.9805588 L 8.5708278,0.9555588 L 8.5708278,0.9005588 L 8.5658278,0.8565588 L 8.5168278,0.8125588 L 8.4858278,0.8075588"
         id="path2548" />
      <path
         style="fill:#00b4ff;stroke:none;stroke-width:0.001"
         d="M 8.4918278,0.8125588 L 8.4248278,0.8125588 L 8.3938278,0.8195588 L 8.3458278,0.8625588 L 8.3388278,0.9055588 L 8.3388278,0.9615588 L 8.3328278,0.9865588 L 8.3328278,1.0115588 L 8.3638278,1.1235588 L 8.3938278,1.1545588 L 8.4618278,1.1675588 L 8.5228278,1.1545588 L 8.5528278,1.1235588 L 8.5778278,1.0485588 L 8.5898278,1.0115588 L 8.5898278,0.9865588 L 8.5778278,0.9615588 L 8.5778278,0.9055588 L 8.5708278,0.8625588 L 8.5228278,0.8195588 L 8.4918278,0.8125588"
         id="path2550" />
      <path
         style="fill:none;stroke:#aae6ff;stroke-width:0.00175797"
         d="M 8.4918278,0.8125588 L 8.4248278,0.8125588 L 8.3938278,0.8195588 L 8.3458278,0.8625588 L 8.3388278,0.9055588 L 8.3388278,0.9615588 L 8.3328278,0.9865588 L 8.3328278,1.0115588 L 8.3638278,1.1235588 L 8.3938278,1.1545588 L 8.4618278,1.1675588 L 8.5228278,1.1545588 L 8.5528278,1.1235588 L 8.5778278,1.0485588 L 8.5898278,1.0115588 L 8.5898278,0.9865588 L 8.5778278,0.9615588 L 8.5778278,0.9055588 L 8.5708278,0.8625588 L 8.5228278,0.8195588 L 8.4918278,0.8125588"
         id="path2552" />
    </g>
    <text
       id="text2719"
       y="6.9687047"
       x="4.860508"
       style="font-size:0.2340368px;font-style:normal;font-weight:normal;fill:#000000;fill-opacity:1;stroke:none;stroke-width:1px;stroke-linecap:butt;stroke-linejoin:miter;stroke-opacity:1;font-family:Bitstream Vera Sans"
       xml:space="preserve"><tspan
         y="6.9687047"
         x="4.860508"
         id="tspan2721"
         sodipodi:role="line">User</tspan></text>
  </g>
  <rect
     style="fill:none;fill-opacity:1;stroke:#000000;stroke-width:0.0504401;stroke-linejoin:round;stroke-miterlimit:4;stroke-dasharray:none;stroke-opacity:1"
     id="rect2734"
     width="9.1536741"
     height="6.5822601"
     x="2.1348569"
     y="4.0978551"
     rx="0.51725298"
     ry="0.51725292" />
  <text
     xml:space="preserve"
     style="font-size:0.60528111px"
     x="2.5614843"
     y="4.9206381"
     id="text3705"><tspan
       sodipodi:role="line"
       id="tspan3707"
       x="2.5614843"
       y="4.9206381">Software System</tspan></text>
  <rect
     style="fill:#aaccee;fill-opacity:1;stroke:#000000;stroke-width:0.0504401;stroke-linejoin:round;stroke-miterlimit:4;stroke-dasharray:0.4035208, 0.4035208;stroke-dashoffset:0;stroke-opacity:1"
     id="rect3716"
     width="6.2152944"
     height="2.9254496"
     x="3.5029976"
     y="5.865315"
     rx="0.51725286"
     ry="0.51725292" />
  <text
     xml:space="preserve"
     style="font-size:0.60528111px"
     x="5.1485615"
     y="7.0842514"
     id="text3718"><tspan
       sodipodi:role="line"
       id="tspan3720"
       x="5.1485615"
       y="7.0842514">Captured</tspan><tspan
       sodipodi:role="line"
       x="5.1485615"
       y="7.8408528"
       id="tspan3728">Subsystem</tspan></text>
  <path
     style="fill:none;fill-rule:evenodd;stroke:#000000;stroke-width:0.0504401;stroke-linecap:round;stroke-linejoin:miter;marker-start:url(#TriangleInL);marker-mid:none;marker-end:url(#TriangleOutL);stroke-miterlimit:4;stroke-dasharray:none;stroke-opacity:1"
     d="M -1.5843091,7.7807989 L 1.5168319,7.7807989"
     id="path4117" />
  <path
     style="fill:none;fill-rule:evenodd;stroke:#000000;stroke-width:0.0504401;stroke-linecap:round;stroke-linejoin:miter;marker-start:url(#TriangleInL);marker-mid:none;marker-end:url(#TriangleOutL);stroke-miterlimit:4;stroke-dasharray:none;stroke-opacity:1"
     d="M 11.730511,7.6511129 L 14.831654,7.6511129"
     id="path4148" />
  <path
     style="fill:none;fill-rule:evenodd;stroke:#000000;stroke-width:0.0504401;stroke-linecap:round;stroke-linejoin:miter;marker-start:url(#TriangleInL);marker-mid:none;marker-end:url(#TriangleOutL);stroke-miterlimit:4;stroke-dasharray:none;stroke-opacity:1"
     d="M 7.1909364,10.965719 L 9.8766034,12.51629"
     id="path4150" />
  <path
     style="fill:none;fill-rule:evenodd;stroke:#000000;stroke-width:0.0504401;stroke-linecap:round;stroke-linejoin:miter;marker-start:url(#TriangleInL);marker-mid:none;marker-end:url(#TriangleOutL);stroke-miterlimit:4;stroke-dasharray:none;stroke-opacity:1"
     d="M 5.3578261,10.92912 L 2.6721591,12.479691"
     id="path4152" />
  <g
     id="g4264"
     transform="matrix(2.5862646,0,0,2.5862646,-9.0807196,-13.72616)">
    <text
       id="text10"
       font-weight="400"
       font-style="normal"
       font-size="0.80"
       y="11.253617"
       x="7.450645"
       style="font-size:0.2340368px;font-style:normal;font-weight:400;text-anchor:start;fill:#000000;font-family:sans">DB</text>
    <g
       transform="matrix(0.6961334,0,0,0.8265064,3.3662821,3.5899765)"
       id="g4258">
      <path
         style="fill:none;stroke:#000000;stroke-width:0.00131835"
         d="M 5.2685264,8.3573229 C 5.6244686,8.1031414 5.8024398,8.0185611 6.1579415,8.0185611 C 6.5134432,8.0185611 6.6914144,8.1031414 7.0473566,8.3573229 L 7.0473566,9.7123705 C 6.6914144,9.966552 6.5134432,10.051132 6.1579415,10.051132 C 5.8024398,10.051132 5.6244686,9.966552 5.2685264,9.7123705 L 5.2685264,8.3573229"
         id="path4260" />
      <path
         style="fill:none;stroke:#000000;stroke-width:0.00131835"
         d="M 5.2685264,8.3573229 C 5.6244686,8.6115045 5.8024398,8.6960848 6.1579415,8.6960848 C 6.5134432,8.6960848 6.6914144,8.6115045 7.0473566,8.3573229"
         id="path4262" />
    </g>
  </g>
</svg>
